<?xml version="1.0" encoding="UTF-8"?>
<svg id="_图层_1" data-name="图层 1" xmlns="http://www.w3.org/2000/svg" version="1.1" xmlns:xlink="http://www.w3.org/1999/xlink" viewBox="0 0 595.28 841.89">
  <defs>
    <style>
      .cls-1 {
        stroke-width: 0px;
      }

      .cls-1, .cls-2, .cls-3 {
        fill: #000;
      }

      .cls-2 {
        font-family: STXihei, STXihei;
        font-size: 10.36px;
        letter-spacing: 0em;
      }

      .cls-4 {
        font-size: 3.47px;
      }

      .cls-3 {
        font-family: MicrosoftYaHeiUI-Bold, 'Microsoft YaHei UI';
        font-weight: 700;
      }

      .cls-5 {
        font-size: .19px;
      }
    </style>
    <path id="path" d="M201.54,168.46c0,11.64-9.42,21.08-21.04,21.08s-21.04-9.44-21.04-21.08,9.42-21.08,21.04-21.08,21.04,9.44,21.04,21.08Z"/>
  </defs>
  <path class="cls-1" d="M445.46,149.35c-.82,1.41-1.84,2.68-2.92,3.9-.49.57-1.03,1.09-1.54,1.64-.81.87-1.62,1.75-2.42,2.63-.19.21-.35.46-.54.71.36.46.82.76,1.27,1.07.71.49.7.49.51,1.3-.19.8-.59,1.5-1.09,2.14-.74.95-1.65,1.72-2.58,2.46-1.24.98-2.52,1.89-3.91,2.65-.33.18-.7.3-1.06.41-.36.11-.69.24-.78.72.57.08,1.1-.05,1.63-.1,1.02-.1,2.04-.26,3.06-.29.71-.02,1.42.12,2.12.23.56.09.96.44,1.2.95.2.44.15.72-.24,1.01-.59.44-1.18.87-1.81,1.25-1.07.64-2.19,1.18-3.43,1.45-.33.07-.61.07-.87-.3.21-.17.42-.35.63-.5.59-.44,1.18-.87,1.78-1.29.36-.25.49-.57.34-1.06-1.39.44-2.85.62-4.23,1.2.05.33.08.62.15.9.38,1.48.5,2.99.62,4.51.15,1.94.12,3.88-.09,5.82-.11,1.01-.41,1.3-1.44,1.33-1.15.03-2.27-.17-3.36-.5-1.09-.33-2.12-.82-3.1-1.4-.24-.14-.46-.3-.66-.49-.12-.11-.19-.27-.31-.45.52-.19.95-.14,1.37-.04.5.12.98.29,1.48.43,1.15.32,2.32.34,3.49.16.21-.03.42-.12.62-.21.41-.18.6-.47.61-.94,0-1.26.1-2.53.06-3.79-.05-1.44-.21-2.88-.33-4.33,0-.07-.04-.13-.08-.25-.36.12-.71.21-1.05.34-2.1.86-4.21,1.72-6.3,2.6-.44.18-.84.44-1.26.67-.98.54-2.02.73-3.14.56-.28-.04-.41-.15-.44-.44-.1-.95-.11-.94.7-1.43.99-.6,1.94-1.26,2.97-1.77,1.34-.67,2.73-1.24,4.12-1.8,1.16-.46,2.34-.85,3.52-1.26.23-.08.37-.19.45-.43.3-.98.87-1.81,1.52-2.59.9-1.09,1.84-2.14,2.89-3.09.28-.26.55-.54.79-.84.11-.14.16-.33.28-.61-.21.07-.3.08-.37.12-2.07,1.23-4.33,1.98-6.65,2.57-1.01.26-2.03.48-3.05.69-.32.07-.66.08-.99.08-.35,0-.45-.12-.5-.39-.05-.28.12-.38.34-.48,2.16-1.01,4.3-2.04,6.47-3.04,1.13-.52,2.21-1.15,3.41-1.51.67-.19.66-.23.68-1.04-.7.07-1.4.14-2.12.21-.02-.47.31-.69.49-.98.18-.29.34-.59.51-.88-.55-.25-1.02-.49-1.5-.68-.12-.05-.34,0-.45.08-.34.27-.67.57-.97.88-.23.24-.4.53-.6.79-.45.57-1.11.77-1.76.93-.2.05-.45-.1-.73-.17.85-1.18,1.83-2.19,2.6-3.43-.54-.1-.94.07-1.3.31-.25.16-.48.35-.69.54-.74.68-1.48,1.37-2.21,2.07-.52.5-.85,1.1-.94,1.82,0,.07-.03.14-.04.22-.11.59-.77.67-1.15.3-.8-.78-1.31-1.71-1.47-2.81-.15-1.05-.26-2.11-.39-3.16-.02-.16,0-.32,0-.49.58.1,1.38.58,1.66,1.04.29.48.55.99.82,1.49.07.13.12.28.22.38.08.08.24.15.33.13.08-.02.16-.19.17-.3.03-.57.05-1.14.03-1.7-.02-.77-.21-1.52-.43-2.26-.32-1.05-.62-2.11-1.12-3.09-.12-.23-.24-.45-.37-.67-.35-.61-.56-1.27-.73-1.97.3-.15.54-.05.75.14,1,.91,1.86,1.93,2.49,3.12.15.27.29.55.44.82.48.87.9,1.76,1.1,2.74.02.11.06.21.1.31.07.2.08.51.35.49.21-.01.48-.15.59-.32.24-.36.48-.76.58-1.17.08-.34.22-.45.53-.49,1.1-.14,1.95-.78,2.8-1.43.25-.19.45-.44.36-.84-.64-.12-1.27,0-1.88.16-.28.08-.55.21-.83.3-.44.13-.88.26-1.33.34-.35.07-.7,0-.96-.35.08-.18.17-.38.25-.58.12-.31.09-.41-.22-.56-.24-.12-.53-.19-.56-.53.36-.28,1.69-.63,3.19-.87.34-.45.61-.87.92-1.24,1.39-1.61,2.81-3.2,3.85-5.07.38-.69.55-1.43.73-2.18.03-.13-.04-.28-.05-.43-.06-.47-.14-.94-.16-1.41-.01-.34.15-.44.45-.31.25.11.51.25.68.45.77.95,1.37,1.99,1.45,3.26.02.36-.05.69-.24,1-.41.66-.9,1.25-1.48,1.76-.84.74-1.66,1.49-2.5,2.24-.33.29-.67.57-1,.86-.09.08-.17.18-.28.3.11.07.18.13.26.15.75.16,1.4.54,2.01.99.56.41,1.12.4,1.7.14.97-.44,1.91-.95,2.88-1.36,1.28-.54,2.59-1.01,4.02-1.04,1.04-.02,1.89.36,2.6,1.09v1.1ZM432.86,157.29c.15-.2.22-.28.28-.37.76-1.11,1.13-2.37,1.41-3.66.07-.32.16-.6.41-.81.34-.28.54-.32.87-.02.35.31.66.68.94,1.06.12.16.19.42.17.62-.12,1.26-.57,2.38-1.53,3.25-.11.1-.22.19-.32.3-.12.13-.2.28-.05.43.14.14.27.06.39-.04.33-.29.67-.57.96-.9,2.04-2.32,3.61-4.95,5.19-7.72-.31.03-.57.01-.79.1-1.13.44-2.25.88-3.36,1.36-.97.42-1.93.87-2.89,1.34-.22.11-.45.26-.59.46-.51.71-.98,1.46-1.48,2.18-.11.16-.13.31-.08.51.13.44.2.89.31,1.33.03.15.08.3.15.58Z"/>
  <path class="cls-1" d="M196.2,183.08c.03.22.02.44,0,.66,0,.1-.02.2-.03.3-.02.16-.03.32-.05.48,0,.04,0,.08,0,.12.08.02.15.02.23.01.12,0,.12,0,.16.1.04.1.06.21.06.32,0,.16-.04.32-.08.48-.06.21-.12.41-.21.61-.02.05-.05.09-.08.13-.03.04-.06.08-.03.14.07-.04.12-.09.17-.14.1-.09.2-.19.31-.28.08-.06.16-.1.25-.15.07-.04.14-.03.21,0,.06.03.08.07.06.13-.03.1-.06.19-.1.28-.07.16-.14.31-.26.44-.03.03-.06.06-.12.04,0-.04.02-.07.03-.11.03-.1.06-.19.09-.29.02-.06,0-.1-.05-.14-.12.16-.26.3-.36.48.03.03.06.06.09.09.16.13.3.29.44.44.17.2.33.41.46.64.07.12.06.18-.05.26-.12.1-.26.17-.41.22-.15.05-.3.08-.45.1-.04,0-.08,0-.11,0-.02,0-.04-.01-.07-.02.04-.06.09-.09.15-.12.06-.03.13-.05.2-.07.15-.06.28-.15.39-.27.02-.02.04-.05.05-.07.03-.05.03-.1-.01-.15-.1-.14-.19-.28-.3-.42-.12-.15-.26-.3-.39-.44,0,0-.02-.01-.03-.02-.03.04-.06.08-.09.12-.16.26-.32.53-.48.8-.03.06-.06.12-.08.18-.06.14-.16.24-.3.32-.03.02-.06.02-.08-.01-.09-.1-.09-.09-.04-.21.06-.15.11-.3.18-.44.09-.18.2-.36.3-.53.09-.14.19-.28.28-.42.02-.03.03-.05.01-.08-.05-.13-.05-.27-.05-.41,0-.19.03-.38.06-.57.01-.05.02-.1.02-.16,0-.02,0-.05-.02-.09-.02.02-.03.03-.03.04-.13.3-.31.57-.52.82-.09.11-.18.22-.28.32-.03.03-.07.06-.1.09-.04.03-.06.02-.09,0-.03-.03-.02-.05,0-.08.15-.29.3-.57.46-.86.08-.15.15-.31.25-.44.06-.08.05-.08-.01-.17-.07.06-.14.13-.21.2-.04-.05-.02-.1-.03-.15,0-.05-.01-.09-.02-.14-.08.02-.15.03-.22.05-.02,0-.04.03-.04.05-.02.06-.03.12-.03.18,0,.04,0,.09,0,.13,0,.1-.06.17-.12.25-.02.02-.06.03-.09.04,0-.2.02-.39,0-.59-.07.03-.1.08-.12.14-.01.04-.02.08-.03.12-.03.13-.05.27-.07.41-.02.1,0,.19.05.27,0,0,0,.02.01.03.04.07-.03.14-.1.13-.15-.02-.28-.08-.39-.19-.1-.1-.2-.21-.3-.31-.01-.02-.03-.03-.04-.05.07-.04.2-.05.27-.02.07.03.14.06.21.1.02,0,.04.02.05.02.02,0,.04,0,.05-.01,0,0,0-.03,0-.05-.04-.06-.09-.13-.13-.19-.06-.08-.15-.15-.23-.21-.12-.09-.24-.18-.37-.25-.03-.02-.06-.03-.09-.04-.09-.04-.16-.09-.24-.16.02-.04.05-.05.09-.05.18.02.36.06.53.14.04.02.08.04.12.05.12.06.24.12.34.21.01,0,.02.02.04.03.02.02.05.05.08.03.02-.02.04-.06.04-.08,0-.06,0-.12-.03-.17-.02-.04-.01-.07.02-.1.11-.1.15-.24.19-.38.01-.04.01-.08-.03-.12-.08.04-.14.1-.19.17-.02.03-.04.07-.07.1-.04.05-.07.1-.12.15-.03.04-.08.06-.13.04,0-.03-.01-.06-.02-.08-.01-.04-.02-.05-.07-.04-.04,0-.07.02-.1-.01.02-.06.13-.21.28-.35,0-.08,0-.14,0-.21.02-.29.05-.58,0-.87-.01-.11-.06-.2-.1-.3,0-.02-.03-.03-.04-.04-.04-.05-.09-.09-.13-.14-.03-.04-.02-.06.02-.07.04,0,.08-.02.11,0,.16.04.31.11.42.24.03.04.05.08.06.13,0,.11,0,.21-.02.31-.03.15-.06.3-.09.45-.01.06-.03.12-.04.18,0,.02,0,.03,0,.06.02,0,.03,0,.04,0,.1-.04.2-.06.3-.06.09,0,.16-.05.2-.12.07-.13.13-.26.2-.38.1-.16.2-.32.35-.44.11-.09.24-.11.37-.09l.09.12ZM195.47,184.97s0-.05,0-.06c0-.18-.07-.35-.14-.51-.02-.04-.03-.08-.02-.12.01-.06.03-.08.09-.07.06,0,.13.02.19.04.03,0,.05.03.07.05.09.15.13.31.1.48,0,.02,0,.04-.01.06,0,.02,0,.05.03.05.03,0,.04-.02.04-.04.01-.06.03-.12.03-.18.03-.42,0-.83-.06-1.26-.03.03-.06.05-.08.08-.09.14-.17.28-.26.42-.07.13-.14.25-.21.38-.02.03-.03.07-.03.1,0,.12.01.24.02.36,0,.03.01.04.03.06.05.04.09.08.14.12.02.01.03.03.06.05Z"/>
  <path class="cls-1" d="M348.02,160.98c-.7.26-1.33.48-1.95.74-.78.33-1.59.57-2.43.65-.84.08-1.12-.15-1.28-.98-.02-.11-.04-.22-.05-.33-.05-.75-.05-.74.65-1.06.61-.28,1.2-.63,1.9-.69.17-.01.33-.14.49-.24.94-.6,1.88-1.21,2.81-1.83.67-.45,1.08-1.09,1.27-1.86.26-1.05.46-2.11.76-3.15.3-1.02.7-2,1.06-3,.1-.29.23-.58.3-.88.08-.34.32-.47.6-.58.28-.11.45.1.61.26.36.39.52.88.64,1.38.08.32.16.64.21.96.07.43.3.74.66.96.27.16.52.36.8.48.78.33,1.2,1.38,1.16,2.27,0,.12-.11.28-.22.36-.63.44-1.01,1.1-1.49,1.68-.2.24-.42.46-.66.64-.64.49-1.27.98-1.79,1.62-.31.38-.7.7-1.08,1-.34.27-.6.57-.77.98-.47,1.16-.79,2.36-1.05,3.58-.03.15,0,.31,0,.56.4-.2.74-.33,1.04-.53,1.63-1.09,3.26-2.18,4.87-3.29.75-.52,1.41-1.19,2.2-1.64,1.05-.61,2.02-1.33,3.02-2.01.32-.22.53-.48.6-.87.39-2,.7-4.01.69-6.05,0-.49.09-.95.34-1.37.27-.46.62-.58,1.12-.38.48.19.85.47,1.04.98.13.34.3.67.48.99.16.29.22.58.14.9-.11.41-.24.81-.34,1.22-.1.39-.2.78-.24,1.18-.04.43.05.84.54,1.1.5-.45,1-.9,1.51-1.34.5-.43.84-1.05,1.48-1.45.13.54.08.98,0,1.42-.17,1-.7,1.84-1.23,2.68-.5.8-1.17,1.38-2.04,1.78-.92.43-1.47,1.24-1.93,2.11-.28.53-.53,1.09-.85,1.6-.2.32-.47.6-.74.87-.62.61-1.03,1.33-1.16,2.19,0,.05.02.11.03.2.64.02,1.25.06,1.76-.47.71-.73,1.53-1.29,2.46-1.74,1.08-.52,2.22-.73,3.4-.79.89-.05,1.56.37,2.05,1.06.17.24.24.57.27.87.09.71-.1,1.39-.43,2.01-.44.84-.93,1.66-1.4,2.48-.05.08-.1.16-.13.24-.3.86-.31.79.29,1.38,1.66,1.6,3.53,2.92,5.42,4.22.41.28.83.53,1.24.81.15.1.3.23.38.39.56.99,1.01,2.03,1.29,3.14.09.38,0,.63-.31.85-.45.34-.95.54-1.52.58-.24.02-.44-.03-.59-.22-.35-.44-.83-.76-1.11-1.28-.16-.29-.48-.49-.71-.76-1.12-1.31-2.23-2.62-3.36-3.92-.37-.43-.79-.81-1.19-1.22-.26-.26-.53-.51-.77-.78-.32-.35-.74-.52-1.17-.52-.24,0-.57.23-.7.45-.27.44-.65.74-1.02,1.06-.88.75-1.75,1.51-2.63,2.25-.84.69-1.73,1.3-2.77,1.65-.14.05-.28.1-.42.14-.67.21-1.05.28-1.56-.59-.55-.94-.97-1.97-1.45-2.96-.15-.31-.26-.64-.42-.95-.42-.83-.36-1.69-.23-2.6.85.18,1.31.72,1.69,1.36.25.42.46.88.74,1.28.91,1.27,2.23,1.58,3.63.9.88-.42,1.57-1.08,2.24-1.76.41-.42.79-.87,1.2-1.29.19-.2.22-.38.01-.56-.26-.23-.52-.47-.82-.64-1.36-.77-2.79-1.37-4.27-1.87-.45-.15-.89-.17-1.36-.12-.5.05-.57-.04-.55-.55.01-.46.15-.88.48-1.19.91-.85,1.28-1.99,1.73-3.09.11-.26.1-.56.16-.97-.34.16-.58.24-.79.36-1.74,1.03-3.46,2.07-5.2,3.09-1,.58-2,1.16-3.03,1.68-.76.38-1.3.91-1.6,1.72-.25.67-.49,1.34-.61,2.05-.16.94-.38,1.86-.54,2.8-.07.41-.08.84-.1,1.26-.06,1.37-.12,2.74-.16,4.12-.02.54-.29.85-.79.98-.38.1-.73.35-1.16.16-.59-.27-1.09-.66-1.31-1.26-.29-.81-.53-1.64-.71-2.48-.12-.58-.27-1.14-.53-1.67-.02-.05-.04-.1-.07-.15-.08-.17-.06-.35.11-.43.11-.05.29-.06.4,0,.47.24.93.51,1.4.77.15.08.32.15.48.23.25-.62.94-4.1.92-4.63-.53-.01-1,.11-1.31.59-.14.21-.28.43-.43.64-.76,1.07-1.86,1.63-3.09,1.97-.46.12-.93.23-1.4.29-.47.06-.6-.06-.66-.52-.04-.34-.08-.7-.04-1.04.02-.2.16-.39.29-.56.92-1.21,2.18-1.98,3.46-2.75,1-.6,1.96-1.29,2.9-1.98.97-.71,1.57-1.67,1.74-2.88.1-.67.28-1.33.42-1.99.03-.12.05-.24.1-.44ZM366.31,163.98c-1.03-.11-3.12.97-3.79,1.35-.23.13-.25.33-.13.56.21.39.47.74.87.97.54.31,1.08.61,1.63.89.27.14.57.32.87.12.39-.26.83-.47.96-.99.16-.68.34-1.35.49-2.02.13-.57-.06-.84-.64-.87-.09,0-.18,0-.26,0ZM351.4,155.38c.66-.26,1.09-.62,1.47-1.03.81-.91.85-1.38.24-2.45-.02-.03-.04-.06-.05-.1-.11-.21-.24-.36-.51-.33-.29.02-.35.24-.4.45-.23.94-.46,1.88-.68,2.81-.04.17-.04.35-.07.65Z"/>
  <path class="cls-1" d="M276.66,176.32c-.44-.31-.5-.74-.56-1.15-.09-.62-.13-1.24-.2-1.86-.01-.1-.03-.2-.06-.35-.4.19-.75.38-1.11.54-.95.43-1.58-.02-1.54-1.07.03-.84.42-1.52,1-2.07.38-.36.52-.83.69-1.29.05-.12.02-.29-.02-.43-.16-.56-.34-1.12-.52-1.69-.26.03-.53.06-.8.1-.47.06-.88-.06-1.21-.4-.32-.34-.67-.34-1.09-.2-.99.31-1.9.76-2.81,1.24-.33.18-.49.48-.6.82-.46,1.49-.74,3.02-.88,4.58-.05.58-.16,1.16-.26,1.74-.07.38-.21.45-.58.36-.3-.07-.56-.24-.68-.51-.15-.35-.29-.72-.32-1.09-.1-1.13.28-2.17.69-3.19.1-.24.33-.44.54-.6.24-.19.42-.4.48-.7.28-1.34.99-2.46,1.79-3.55,1.12-1.53,2.47-2.85,3.88-4.11.29-.26.6-.48.91-.71.47-.36.76-.86,1.14-1.29-.02-.03-.04-.06-.07-.09-.13.04-.26.08-.39.13-.79.33-1.58.67-2.38,1.01-.46.19-.94.26-1.45.29-1.19.08-2.38.07-3.57-.08-.27-.03-.43-.12-.47-.42-.06-.46-.05-.53.39-.7.63-.24,1.26-.5,1.92-.67.85-.23,1.55-.74,2.29-1.17.84-.49,1.65-1.03,2.49-1.51.59-.33,1.21-.6,1.84-.87.55-.24.85-.62.97-1.22.21-1,.49-1.99.76-2.98.3-1.11.88-2.09,1.38-3.11.22-.44.45-.88.67-1.32.09-.19.18-.36.43-.36.25,0,.43.15.49.38.15.58.38,1.17.39,1.76.02,1.13-.08,2.27-.13,3.4-.01.29-.04.58-.06.92.9-.17,1.53-.58,1.78-1.45.07-.25.12-.5.18-.75.05-.22.18-.29.41-.24.9.18,1.65,1.15,1.58,2.05-.02.31-.22.48-.44.66-2,1.65-4.1,3.14-6.29,4.52-.14.09-.27.19-.39.3-.04.03-.06.09-.12.19.12.05.21.14.31.14.1,0,.2-.08.29-.14.99-.58,1.95-1.26,2.99-1.73,1.26-.57,2.54-1.15,3.95-1.3.36-.04.73-.03,1.09.03.83.13,1.3.84,1.23,1.67-.13,1.39-.45,2.74-.7,4.11-.15.86-.19,1.75-.23,2.62-.08,1.59-.18,3.18-.2,4.78-.01,1.21.06,2.42.14,3.62.08,1.18.07,2.35-.12,3.51-.14.86-.43,1.7-.65,2.55-.06.22-.19.35-.43.36-.4.02-.81.05-1.21.07-.07,0-.16,0-.21-.04-.55-.39-1.22-.6-1.67-1.13-.14-.16-.32-.3-.49-.43-.36-.27-.57-.65-.86-1.12.74.09,1.37.17,1.99.24.16.02.33.05.49.06.65.04.91-.1,1.09-.73.16-.56.25-1.14.35-1.72.26-1.47.21-2.96.24-4.44.03-1.76.04-3.52.08-5.28.02-.88.14-1.75.16-2.63.02-.9-.02-1.79-.03-2.69,0-.09-.01-.18-.02-.27-.08-.72-.24-.83-.92-.58-.34.13-.67.29-1,.45-.81.38-1.62.78-2.43,1.14-1.28.58-2.4,1.4-3.5,2.27-.07.06-.13.12-.19.19-.02.02-.01.06-.03.15,1.07-.09,2.13-.15,3.13.38,0,.5.08,1-.02,1.47-.12.58-.45,1.09-1.04,1.32-.7.27-1.09.79-1.3,1.46-.04.13.02.33.1.44.14.19.34.33.52.49.22.2.45.38.65.59.34.36.53.78.45,1.3-.04.25-.07.51-.1.76-.05.42-.19.77-.55,1.03-.38.28-.52.71-.57,1.15-.09.76-.16,1.53-.22,2.29-.04.54-.14,1.05-.42,1.52-.05.09-.13.17-.23.29ZM276.08,162.24l-.12-.09c-.76.62-1.52,1.25-2.28,1.87-.03.02-.05.05-.07.08-.1.14-.17.29-.01.44.16.16.29.05.43-.05.31-.19.61-.4.94-.55.75-.34,1.07-.94,1.12-1.71Z"/>
  <path class="cls-1" d="M170.46,190.73c-.04-.06-.03-.12-.02-.17.02-.08.04-.16.07-.25,0-.01,0-.03,0-.05-.06,0-.11.01-.17.01-.14,0-.2-.08-.14-.21.04-.11.13-.17.23-.21.07-.03.11-.08.15-.13.01-.01.02-.04.02-.06,0-.08.01-.16.02-.24-.03,0-.07-.02-.11-.03-.06-.02-.11-.05-.13-.11-.02-.06-.07-.08-.13-.08-.14,0-.28,0-.42.02-.05,0-.09.04-.12.07-.13.17-.24.35-.34.54-.04.07-.08.14-.12.21-.03.04-.05.05-.09.02-.04-.02-.06-.06-.06-.1,0-.05,0-.11.01-.15.04-.15.14-.26.24-.37.02-.03.06-.04.1-.05.04-.01.07-.03.1-.07.1-.16.25-.26.4-.36.22-.14.45-.24.69-.33.05-.02.1-.03.15-.05.08-.02.14-.07.21-.11,0,0,0,0,0-.01-.02,0-.04,0-.06,0-.12,0-.23,0-.35.01-.07,0-.13-.01-.2-.03-.16-.05-.31-.11-.45-.19-.03-.02-.05-.04-.04-.08.01-.06.02-.07.08-.07.09,0,.18,0,.28,0,.12.01.23-.02.35-.04.13-.02.26-.05.39-.07.09-.01.18-.02.28-.02.08,0,.14-.04.18-.11.08-.12.16-.23.24-.34.09-.13.21-.22.33-.33.05-.05.1-.09.15-.14.02-.02.04-.04.07-.02.03.01.05.04.04.07,0,.08,0,.17-.04.24-.05.15-.12.28-.18.43-.02.04-.03.07-.05.11.12.02.22,0,.3-.1.02-.03.04-.06.06-.09.02-.03.04-.03.06-.01.11.07.15.23.1.34-.02.04-.05.05-.09.06-.33.11-.67.2-1.02.27-.02,0-.04.01-.06.02,0,0-.01,0-.02.02.01.01.02.03.03.03.01,0,.03,0,.04,0,.15-.03.31-.06.46-.07.19-.01.38-.02.56.03.05.01.09.03.14.06.1.06.12.17.07.27-.08.17-.19.33-.29.49-.06.1-.11.21-.16.32-.09.2-.18.4-.26.6-.06.15-.11.31-.16.47-.05.15-.11.3-.19.44-.06.1-.14.2-.21.29-.02.02-.04.03-.07.03-.05-.02-.1-.03-.16-.05,0,0-.02,0-.03-.02-.05-.08-.13-.14-.16-.23-.01-.03-.03-.05-.04-.08-.03-.05-.04-.11-.05-.18.09.05.17.09.24.13.02.01.04.02.06.03.08.04.12.03.17-.04.05-.06.09-.13.13-.2.1-.17.17-.37.25-.55.09-.22.18-.45.27-.67.05-.11.1-.22.15-.33.05-.11.09-.23.13-.34,0-.01,0-.02.01-.04.03-.1.01-.12-.09-.12-.05,0-.1,0-.15,0-.12,0-.24.02-.37.03-.19.01-.37.06-.56.12-.01,0-.02,0-.03.02,0,0,0,0-.01.02.14.04.28.09.38.2-.02.06-.04.13-.07.19-.04.07-.11.12-.2.12-.1,0-.18.05-.24.12-.01.01-.01.04,0,.06,0,.03.03.06.04.09.02.04.04.07.05.11.03.06.03.13,0,.19-.02.03-.03.06-.05.09-.03.05-.06.09-.12.1-.06.02-.1.07-.13.12-.05.09-.1.19-.14.28-.03.07-.07.13-.13.17-.01,0-.02.02-.04.03ZM171.08,188.92v-.02c-.14.04-.27.08-.39.13,0,0,0,0-.01,0-.02.01-.04.03-.02.06.01.03.03.02.06.02.05,0,.1-.02.15-.02.11,0,.18-.07.23-.16Z"/>
  <path class="cls-1" d="M399.89,159.71c.59-.06,1.06-.31,1.43-.68.72-.72,1.41-1.48,2.11-2.24.13-.14.21-.34.3-.52.32-.66.39-1.37.34-2.09-.04-.6-.1-1.19-.15-1.82.46-.03.8.13,1.02.51.12.2.21.43.26.66.35,1.46.29,2.88-.57,4.17-.69,1.04-1.43,2.04-2.11,3.08-.36.55-.66,1.14-.94,1.73-.34.73-.62,1.49-.92,2.23-.24.58-.56,1.05-1.11,1.44-.63.45-1.17,1.06-1.64,1.68-.44.57-.75,1.25-1.12,1.88-.39.66-.8,1.31-1.19,1.97-.27.46-.52.93-.45,1.54.15.01.29.04.43.03,1.81-.15,3.61-.39,5.43-.44,1.05-.03,2.14.05,3.12.52.74.36,1.26.93,1.4,1.78.07.43.03.42-.35.62-.52.27-1.03.57-1.5.91-.81.6-1.67,1.13-2.6,1.52-.33.14-.67.33-1.1,0,.9-.82,1.65-1.75,2.06-2.91-.31-.27-.67-.26-1.01-.29-2.1-.18-4.2-.34-6.3-.53-.32-.03-.5.09-.61.34-.55,1.24-1.6,2.03-2.62,2.84-.58.46-1.28.71-2.05.65-.75-.06-1.11-.56-.9-1.29.04-.16.1-.32.19-.45.5-.77.98-1.54,1.51-2.29.41-.58.74-1.17.85-1.88.07-.46.27-.91.41-1.36.17-.56.34-1.11.52-1.7-.45-.14-.83-.04-1.2,0-1.22.1-2.45.23-3.67.31-.95.06-1.85-.14-2.69-.63-.35-.21-.55-.44-.55-.86,0-.42.2-.64.55-.79,1.19-.52,2.41-.96,3.69-1.25.8-.18,1.58-.46,2.33-.79.84-.36,1.66-.78,2.43-1.26.52-.32.98-.77,1.41-1.2.16-.16.21-.46.27-.7.34-1.33.64-2.67,1.01-3.99.54-1.92,1.05-3.85,1.43-5.81.11-.58.2-1.16.36-1.72.16-.54.37-1.07.62-1.58.24-.49.6-.52.92-.07.55.77.92,1.64,1.05,2.57.12.91.2,1.82.2,2.74-.01,1.63,0,3.26-.28,4.88-.03.17,0,.36,0,.58Z"/>
  <path class="cls-1" d="M180.83,140.99c5.9.09,11.23,1.88,16.01,5.36,3.41,2.48,6.06,5.63,8.05,9.33,1.33,2.47,2.2,5.1,2.71,7.86.5,2.73.6,5.46.22,8.21-.58,4.16-1.93,8.04-4.27,11.55-2.53,3.79-5.78,6.8-9.77,9.01-2.77,1.53-5.72,2.55-8.84,3.06-2.38.38-4.77.46-7.19.23-3.06-.29-5.99-1.07-8.78-2.33-2.71-1.22-5.16-2.86-7.34-4.88-2.87-2.65-5.08-5.77-6.62-9.36-.95-2.22-1.58-4.52-1.9-6.92-.26-1.88-.37-3.76-.21-5.65.45-5.27,2.16-10.07,5.33-14.34,2.23-3,4.95-5.45,8.17-7.34,2.78-1.63,5.76-2.72,8.92-3.34,1.83-.36,3.67-.49,5.53-.45ZM207.26,168.39c-.07-.93-.1-1.87-.2-2.79-.38-3.54-1.41-6.88-3.14-10-2.2-3.98-5.24-7.18-9.07-9.62-4.25-2.71-8.92-4.03-13.94-4.21-1.47-.05-2.93.11-4.39.32-2.97.41-5.79,1.29-8.45,2.67-3.58,1.85-6.58,4.38-9.02,7.58-2.3,3.01-3.9,6.36-4.75,10.06-.71,3.06-.85,6.16-.45,9.28.2,1.59.52,3.15,1.01,4.67.92,2.85,2.26,5.48,4.07,7.87,2.19,2.89,4.83,5.26,7.97,7.07,1.83,1.06,3.76,1.91,5.79,2.5,1.5.43,3.01.8,4.57.93,1.68.13,3.36.18,5.06.1,2.6-.13,5.09-.68,7.51-1.58,3.96-1.48,7.41-3.77,10.3-6.87,2.58-2.76,4.49-5.93,5.7-9.5.94-2.74,1.4-5.57,1.44-8.48Z"/>
  <g>
    <path class="cls-1" d="M236.45,181.23c.66.21,1.18.55,1.84.58.26-.54.59-1.06.77-1.63.33-1.04.68-2.1.84-3.18.34-2.41.57-4.84.85-7.26.06-.56.13-1.13.18-1.69.02-.17.02-.35.03-.53-.04-.02-.07-.04-.11-.06-.08.07-.19.12-.23.21-.28.62-.52,1.25-.81,1.86-.11.24-.32.44-.47.67-.21.3-.44.58-.63.89-.24.41-.48.83-.65,1.27-.17.42-.26.87-.38,1.32-.2.76-.15.86-1.13.77-.38-.03-.67-.18-.88-.48-.03-.04-.07-.09-.11-.12-.83-.71-.82-1.6-.48-2.51.3-.78.68-1.54,1.06-2.29.19-.37.35-.71.34-1.13,0-.36.08-.73.12-1.09.02-.18.04-.36.07-.67-.16.17-.25.24-.31.33-.65.96-1.17,1.98-1.58,3.07-.33.87-.72,1.72-1.05,2.6-.15.4-.45.56-.82.63-.13.02-.31.01-.42-.05-.46-.26-.87-.62-.96-1.14-.08-.45.01-.94.08-1.4.03-.23.24-.36.45-.5.35-.25.63-.6.89-.94.51-.65.97-1.33,1.48-1.98.24-.3.53-.55.8-.83.14-.14.32-.27.41-.44.27-.51.71-.85,1.13-1.18.49-.39,1.1-.34,1.68-.19.1.03.2.16.26.26.26.47.46.95.4,1.51-.03.32,0,.64,0,.96.04.01.08.03.12.04.1-.12.22-.22.29-.35.87-1.47,1.68-2.98,1.95-4.69.1-.63.41-.99,1.01-1.14.28-.07.57-.13.86-.19.56-.13.62-.29.26-.72-.39-.46-.81-.9-1.2-1.36-.13-.16-.23-.35-.38-.58.85-.1,1.58,0,2.27.34.41.21.81.44,1.22.64.31.15.57.36.71.66.37.78.75,1.55,1.06,2.35.25.64.17,1.24-.25,1.86-.55.82-.96,1.73-1.4,2.61-.08.16-.1.4-.04.57.19.57.43,1.13.65,1.69.07.17.14.34.19.51.07.23.02.44-.17.6-.2.17-.41.23-.66.11-.63-.3-1.12-.75-1.46-1.37-.15-.28-.33-.55-.57-.94-.07.25-.12.36-.13.47-.18,1.19-.39,2.38-.53,3.58-.08.74-.06,1.5-.06,2.25,0,.24,0,.52.29.72.41-.39.76-.13,1.13.13.75.52,1.51,1.05,2.31,1.5.48.27,1.05.37,1.61.55.07-.23.13-.38.15-.54.38-2.27.38-4.56.29-6.85-.03-.71-.13-1.41-.15-2.12-.01-.57.06-1.13.09-1.7.1-1.79.17-3.59.31-5.38.14-1.73.36-3.46.55-5.19.03-.31.11-.61.17-.92.03-.16.05-.32.09-.6-.27.18-.45.29-.62.42-.62.48-1.26.96-1.86,1.46-.9.76-1.99,1.09-3.11,1.29-.66.12-1.35.12-2.03.17-.1,0-.21-.03-.33-.04-.03-.45.07-.79.54-.96.41-.15.79-.38,1.19-.57.46-.22.82-.55,1.13-.94.78-1,1.78-1.74,2.84-2.4.53-.33,1.06-.64,1.55-1.04.8-.65,1.73-1.1,2.79-1.18.54-.04,1.07.06,1.55.3.52.26.71.75.65,1.29-.09.89-.18,1.78-.44,2.65-.8,2.69-1.39,5.44-1.7,8.22-.24,2.11-.34,4.24-.39,6.36-.03,1.33.17,2.67.21,4,.04,1.21.06,2.42-.02,3.62-.09,1.36-.07,2.71.1,4.06.06.44-.27,1.04-.66,1.22-.1.05-.25.04-.37.02-1.19-.22-2.06-.87-2.66-1.93-.38-.68-.97-1.2-1.6-1.65-.58-.42-1.18-.81-1.79-1.18-.4-.25-.71-.56-.95-.97-.19-.33-.42-.63-.66-.98-.21.21-.23.43-.24.64-.11,1.78-.64,3.49-.99,5.23-.05.27-.17.52-.28.77-.3.67-.58,1.35-.95,1.98-.35.57-.79,1.09-1.24,1.6-.26.29-.62.28-.95.05-.12-.08-.23-.19-.32-.3-.75-.9-1.3-1.9-1.61-3.04-.02-.08-.03-.17-.05-.33Z"/>
    <path class="cls-1" d="M233.77,163.79c-.15-.62.27-1.1.26-1.66-.08,0-.13-.01-.18,0-.86.24-1.72.51-2.59.72-.44.11-.74.28-.81.76-.03.23-.13.46-.16.7-.15,1.22-.47,2.4-.81,3.58-.47,1.62-.88,3.25-1.33,4.87-.51,1.82-1.11,3.6-1.82,5.35-.52,1.29-.97,2.61-1.45,3.91-.06.17-.08.36-.12.53-.11.54-.48.77-1.01.62-.19-.05-.4-.12-.55-.24-.51-.39-1.04-.77-1.47-1.23-.65-.7-.65-1.9-.09-2.69.09-.12.12-.3.13-.46.06-1.46.12-2.93.14-4.4.03-1.54.16-3.07.41-4.59.22-1.32.39-2.65.58-3.97.02-.13.04-.25.07-.38q.12-.58.75-.48c.9,2.2,1.1,4.59,1.74,6.9.28-.41.57-.79.71-1.26.19-.61.29-1.27.6-1.82.74-1.34.71-2.86,1.12-4.28.05-.16.01-.37-.04-.53-.48-1.35-.13-2.46.89-3.43,1.37-1.3,2.85-2.48,4.41-3.54.45-.31.91-.63,1.37-.92.26-.16.38-.36.43-.66.43-2.53.98-5.03,1.62-7.52.17-.67.43-1.32.66-1.98.06-.17.17-.32.27-.48.14-.22.35-.3.61-.29.67.02,1.12.38,1.29,1.04.03.11.04.22.1.31.62.99,1.15,2.05,2.07,2.81.82.68,1.62,1.38,2.46,2.03.37.29.49.62.49,1.08,0,1.08-.36,1.97-1.22,2.64-.1.08-.2.16-.31.22-1.06.54-2.12,1.06-3.17,1.62-1.29.7-2.34,1.62-2.76,3.12-.39,1.38-1.3,2.44-2.26,3.46-.27.29-.64.4-1.03.5ZM240.48,152.43c.18-1.79.04-2.63-.58-3.22-.05.48-.09.91-.13,1.34-.05.42-.11.83-.15,1.25-.04.42-.22.83-.1,1.31.34-.25.63-.46.96-.69Z"/>
    <path class="cls-1" d="M226.81,153.12c-.05-.49.03-.91.24-1.22.47-.7.49-1.48.6-2.25.14-1.04.03-2.08-.12-3.11-.04-.25-.09-.52-.21-.73-.29-.5-.43-1.04-.51-1.61-.1-.69-.21-1.37-.29-2.06-.06-.47.15-.65.56-.42.39.22.77.51,1.06.85.68.79,1.21,1.67,1.65,2.64.52,1.14.61,2.34.37,3.48-.29,1.37-.87,2.68-1.96,3.67-.39.36-.84.61-1.38.79Z"/>
  </g>
  <g>
    <path class="cls-1" d="M163.91,187.12c.05.08.07.16.14.22.07-.03.15-.06.22-.1.13-.08.26-.16.37-.26.25-.22.48-.45.72-.68.06-.05.11-.11.17-.16.02-.02.03-.03.05-.05,0,0,0-.01,0-.02-.01,0-.03,0-.04,0-.08.04-.16.08-.25.12-.03.02-.07.02-.11.03-.05.01-.1.02-.14.04-.06.02-.12.04-.18.08-.05.03-.1.07-.15.1-.09.06-.09.08-.19-.02-.04-.04-.05-.08-.05-.13,0,0,0-.02,0-.02-.02-.15.06-.24.17-.3.1-.06.21-.1.31-.15.05-.02.1-.04.13-.09.03-.04.07-.07.11-.1.02-.02.04-.03.07-.06-.03,0-.05,0-.06,0-.15.04-.3.1-.43.18-.11.06-.23.12-.34.18-.05.03-.1.02-.14,0-.02,0-.03-.03-.04-.04-.03-.07-.04-.14,0-.2.03-.05.08-.1.13-.14.02-.02.06-.02.09-.01.06,0,.12,0,.18-.02.11-.02.22-.05.33-.08.05-.01.1-.01.16-.02.03,0,.06,0,.08-.01.07-.03.15-.03.22-.02.09,0,.14.06.19.13,0,.01,0,.03,0,.05-.01.07-.04.14-.09.19-.03.03-.06.07-.08.1,0,0,0,0,0,.01.02,0,.04,0,.06-.01.22-.08.44-.16.61-.32.07-.06.13-.07.21-.03.04.02.07.04.11.05.07.04.09.02.09-.05,0-.08,0-.16,0-.25,0-.03,0-.06.01-.09.1.06.16.14.21.23.02.06.05.12.07.17.02.04.03.09.02.13-.03.11-.06.23-.09.34-.03.09-.09.14-.19.17-.13.04-.25.1-.37.15-.02,0-.05.03-.05.06-.03.08-.05.15-.08.23,0,.02-.02.05-.03.07-.01.03-.04.05-.07.05-.04,0-.06-.01-.08-.05-.04-.09-.05-.18-.03-.27,0-.04.01-.09.02-.15-.03.02-.04.03-.06.04-.12.11-.25.21-.37.33-.07.07-.14.15-.2.23-.02.03-.05.06-.03.1.08,0,.09.05.11.11.03.12.06.24.11.36.03.07.08.13.12.2.03-.02.05-.03.06-.04.24-.2.44-.44.63-.69.06-.08.11-.16.17-.23.05-.06.11-.11.16-.17.17-.18.33-.36.5-.53.17-.17.34-.33.51-.49.03-.03.07-.05.1-.08.02-.01.03-.03.06-.06-.04,0-.07,0-.1-.01-.11,0-.21-.01-.32-.01-.16,0-.3-.06-.44-.14-.08-.05-.15-.11-.23-.16-.01,0-.02-.02-.03-.03.04-.05.08-.08.14-.05.06.02.12.03.17.04.07.02.13.01.2,0,.17-.04.34-.03.51,0,.08.01.17.03.25.03.14,0,.28.04.39.12.06.04.11.1.14.17.03.07,0,.14-.04.19-.09.08-.17.17-.28.24-.32.21-.62.44-.9.71-.21.2-.41.41-.6.63-.12.14-.22.29-.33.44-.1.13-.21.26-.32.38-.13.13-.24.28-.34.43-.03.05-.12.08-.17.07-.02,0-.03-.02-.04-.03-.1-.13-.14-.27-.11-.43.02-.1,0-.21-.02-.31-.02-.09-.05-.19-.08-.28-.02-.06-.03-.12-.01-.18,0-.05.01-.1.02-.16-.04,0-.06.02-.08.04-.17.18-.37.31-.56.46-.03.02-.06.04-.1.06-.09.04-.18.09-.27.12-.09.03-.18.04-.27.06-.05,0-.09-.03-.1-.08,0-.02,0-.04,0-.06,0-.16.03-.31.1-.46,0-.01.01-.02.02-.04Z"/>
    <path class="cls-1" d="M165.16,185.07c.04-.08.12-.09.17-.15,0,0-.01-.01-.02-.02-.11-.05-.22-.1-.33-.15-.05-.03-.1-.04-.15,0-.02.02-.05.04-.08.06-.12.11-.26.21-.4.3-.19.13-.38.26-.57.39-.21.15-.43.28-.66.4-.17.09-.33.19-.49.28-.02.01-.04.03-.06.05-.06.05-.12.04-.16-.02-.02-.02-.03-.05-.04-.07-.02-.09-.04-.17-.05-.26,0-.13.1-.25.23-.29.02,0,.04-.02.05-.04.13-.15.27-.29.4-.45.14-.16.29-.31.45-.44.14-.12.27-.24.41-.36.01-.01.03-.02.04-.03q.06-.05.12.02c-.1.31-.29.58-.42.87.07-.02.13-.03.18-.07.07-.05.14-.11.22-.14.19-.07.32-.24.49-.35.02-.01.03-.04.04-.06.07-.18.2-.27.39-.28.26-.02.51,0,.77.02.07,0,.15.01.22.02.04,0,.07,0,.1-.03.27-.23.54-.44.83-.64.08-.05.16-.1.24-.15.02-.01.05-.02.07-.03.03-.01.06,0,.09.02.07.06.08.14.04.22,0,.01-.02.03-.02.04-.02.16-.06.31-.03.48.03.14.05.29.08.43.01.06,0,.11-.04.16-.09.11-.21.17-.36.17-.02,0-.04,0-.05,0-.16-.04-.31-.08-.47-.11-.2-.04-.39-.04-.56.08-.16.11-.35.14-.54.16-.05,0-.1-.01-.15-.04ZM166.85,184.47c.18-.17.23-.27.22-.39-.05.05-.09.09-.13.13-.04.04-.08.08-.13.12-.04.04-.1.07-.13.13.06,0,.11,0,.16.01Z"/>
    <path class="cls-1" d="M165.37,183.34c.04-.06.08-.09.13-.11.11-.03.18-.11.26-.18.11-.1.19-.21.26-.34.02-.03.04-.06.04-.09.01-.08.05-.15.09-.21.05-.08.1-.16.15-.24.04-.05.07-.05.1,0,.02.06.04.12.04.18,0,.14-.02.28-.06.42-.05.16-.14.3-.27.39-.15.12-.33.2-.53.21-.07,0-.14,0-.21-.04Z"/>
  </g>
  <g>
    <path class="cls-1" d="M316.31,160.94c-.37-.42-.7-.92-1.15-1.28-.57-.47-.52-1.09-.58-1.69-.02-.15.17-.35.31-.49.08-.08.23-.13.35-.14,1.22-.15,2.42-.15,3.49.59.85.59,1.07,1.46.54,2.34-.28.47-.66.87-.99,1.31-.28.38-.58.75-.83,1.16-.57.94-1.02,1.95-1.34,3-.05.17-.08.34-.11.51.03.02.07.04.1.07.19-.16.36-.36.57-.48.69-.41,1.08-1.07,1.5-1.71.6-.9,1.25-1.77,1.89-2.64,1.2-1.64,1.18-1.64,1.45-3.65.24-1.74.58-3.47.8-5.21.31-2.4.9-4.75,1.01-7.18.01-.31.13-.56.35-.77.25-.24.49-.5.74-.74.38-.36.42-.36,1-.11-.4.96-.5,2-.67,3.02-.28,1.7-.55,3.4-.79,5.1-.2,1.38-.36,2.76-.53,4.14-.02.16-.02.32-.03.53.34-.06.47-.29.63-.47,1.17-1.36,1.85-2.93,2.07-4.71.04-.29.12-.58.14-.87.03-.42.07-.84.02-1.25-.17-1.36-.38-2.72-.57-4.08,0-.07,0-.14.01-.2.51-.09.58-.07.75.32.54,1.24,1.07,2.5,1.37,3.82.27,1.2.34,2.42.1,3.65-.33,1.63-.86,3.17-1.67,4.63-.27.5-.49,1.03-.76,1.52-.64,1.13-1.28,2.26-1.95,3.37-.24.4-.34.79-.34,1.24,0,2.36.02,4.73-.06,7.09-.12,3.15-.33,6.29-.52,9.44-.1,1.7-.22,3.4-.36,5.1-.16,1.88-.36,3.76-.54,5.63,0,.09-.03.17-.05.29-.15.01-.29.02-.45.04-.03-.15-.07-.27-.07-.4-.03-1.26-.08-2.53-.09-3.79-.01-4.8,0-9.6-.01-14.41,0-2.29-.06-4.58-.1-6.87,0-.11-.02-.21-.03-.35-.25.02-.34.21-.46.36-.77.98-1.52,1.97-2.32,2.93-.49.59-1.05,1.12-1.59,1.68-.8.83-2.42.4-2.89-.22-.51-.67-.7-1.46-.46-2.29.15-.51.36-1,.58-1.48.62-1.37,1.25-2.73,1.89-4.09.2-.43.43-.84.69-1.33Z"/>
    <path class="cls-1" d="M300.27,163.33c.17-.71.56-1.2.97-1.66.81-.93,1.77-1.7,2.83-2.33,1.23-.73,2.46-1.46,3.65-2.25.63-.42.94-1.06.95-1.86.01-.61.18-1.22.3-1.83.05-.25.27-.32.52-.31.24.01.3.18.35.36.03.12.07.25.08.38.12,1.38.42,2.71.86,4.02.13.4.15.79,0,1.18-.43,1.11-.87,2.21-1.29,3.33-.17.46-.37.93-.42,1.41-.15,1.44-.29,2.88-.32,4.32-.05,2.47,0,4.95-.02,7.42,0,1.91-.06,3.81-.04,5.72,0,.61-.33.94-.77,1.22-.12.08-.31.09-.46.07-.22-.03-.42-.11-.64-.16-.22-.05-.34-.2-.39-.41-.05-.2-.08-.4-.15-.59-.18-.49-.06-.88.34-1.22.14-.12.27-.33.27-.5.02-1.41.01-2.82.01-4.32-.73.44-1.45.38-2.15.34-1.09-.05-2.13-1.14-2.07-2.23.05-.8.21-1.59.38-2.38.4-1.87,1.09-3.64,1.77-5.42.57-1.51,1.12-3.02,1.7-4.6-.17.03-.29.03-.4.07-.42.18-.83.39-1.25.57-1.13.51-2.27,1.03-3.41,1.52-.34.15-.72.24-1.18.14ZM306.05,170.3c.06.02.11.04.17.06.09-.17.21-.32.25-.5.26-1.22.4-2.45.38-3.69,0-.06-.03-.12-.08-.28-.12.17-.23.26-.25.36-.29,1.33-.5,2.68-.47,4.04Z"/>
    <path class="cls-1" d="M313.33,143.53c.45-.03.75.16.9.53.16.39.33.78.41,1.18.05.23-.02.51-.11.73-.27.67-.72,1.23-1.24,1.72-1.12,1.07-2.39,1.92-3.86,2.45-.19.07-.38.18-.56.02-.2-.18-.32-.42-.24-.69.06-.23.17-.45.28-.65.54-.95,1.24-1.76,2.07-2.46.15-.12.25-.3.35-.47.18-.31.31-.66.51-.95.29-.42.63-.81.95-1.21.15-.18.31-.32.54-.22Z"/>
    <path class="cls-1" d="M316.18,155.2c.04-.41.05-.77.12-1.12.07-.35,0-.57-.3-.79-.23-.18-.44-.45-.54-.73-.19-.49.19-1.01.71-1.06.97-.09,2.05.6,2.39,1.51.13.35.11.66-.09.99-.51.83-1.26,1.17-2.29,1.21Z"/>
  </g>
  <g>
    <path class="cls-1" d="M177.51,189.96c-.04-.06-.08-.14-.13-.19-.07-.07-.05-.16-.05-.24,0-.02.03-.04.05-.06.01-.01.03-.01.05-.01.17,0,.33.02.46.14.1.09.12.22.04.33-.05.06-.1.11-.15.16-.04.05-.09.09-.13.14-.09.12-.17.25-.23.38,0,.02-.02.04-.02.07,0,0,0,0,.01.01.03-.02.05-.04.08-.06.1-.04.16-.13.23-.21.1-.11.2-.22.3-.33.19-.2.19-.2.26-.47.06-.23.13-.46.19-.69.08-.32.2-.63.25-.95,0-.04.03-.07.06-.1.04-.03.07-.06.11-.09.06-.04.06-.04.14,0-.07.12-.1.26-.14.4-.07.22-.13.45-.19.68-.05.18-.09.37-.14.55,0,.02,0,.04-.01.07.05,0,.07-.03.09-.05.18-.16.3-.37.36-.6,0-.04.03-.08.03-.11.01-.06.02-.11.02-.17,0-.19,0-.37-.01-.56,0,0,0-.02,0-.03.07,0,.08,0,.1.05.05.18.1.35.12.54.02.17,0,.33-.05.49-.07.22-.17.41-.3.6-.05.06-.08.13-.13.19-.1.14-.21.29-.32.42-.04.05-.06.1-.07.16-.04.32-.07.64-.12.96-.07.42-.15.85-.22,1.27-.04.23-.08.46-.13.68-.05.25-.11.5-.17.75,0,.01,0,.02-.01.04-.02,0-.04,0-.06,0,0-.02,0-.04,0-.05.02-.17.03-.34.05-.51.08-.65.16-1.3.23-1.95.04-.31.07-.62.1-.93,0-.01,0-.03,0-.05-.03,0-.05.02-.07.04-.12.12-.24.24-.36.36-.08.07-.16.13-.24.2-.12.1-.33.01-.39-.08-.06-.1-.07-.21-.03-.32.03-.07.06-.13.1-.19.11-.17.21-.35.32-.52.03-.05.07-.11.11-.17Z"/>
    <path class="cls-1" d="M175.3,190.03c.03-.09.1-.15.16-.21.12-.11.27-.2.42-.27.18-.08.36-.16.53-.25.09-.05.14-.13.16-.24.01-.08.04-.16.07-.24.01-.03.04-.04.07-.03.03,0,.04.03.04.05,0,.02,0,.03,0,.05,0,.19.01.37.05.56.01.06,0,.11-.02.16-.08.14-.15.28-.23.43-.03.06-.06.12-.08.18-.04.19-.09.38-.11.58-.05.33-.08.67-.12,1-.03.26-.07.51-.1.77,0,.08-.06.12-.12.15-.02,0-.04,0-.06,0-.03,0-.06-.02-.08-.03-.03-.01-.04-.03-.05-.06,0-.03,0-.05-.01-.08-.02-.07,0-.12.07-.16.02-.01.04-.04.05-.06.03-.19.05-.38.07-.58-.11.05-.2.03-.3.01-.15-.02-.27-.19-.24-.33.02-.11.05-.21.09-.32.08-.25.21-.47.33-.7.1-.19.2-.39.3-.59-.02,0-.04,0-.05,0-.06.02-.12.04-.18.06-.16.05-.32.1-.49.15-.05.01-.1.02-.16,0ZM175.97,191.06s.01,0,.02.01c.01-.02.03-.04.04-.06.05-.16.09-.32.11-.49,0,0,0-.02,0-.04-.02.02-.04.03-.04.04-.06.18-.11.35-.13.54Z"/>
    <path class="cls-1" d="M177.39,187.56c.06,0,.1.03.11.09.02.05.03.11.04.17,0,.03-.01.07-.03.1-.05.09-.12.15-.2.21-.17.13-.35.22-.56.27-.03,0-.05.02-.08,0-.02-.03-.04-.06-.02-.1.01-.03.03-.06.05-.08.09-.12.2-.22.32-.3.02-.01.04-.04.05-.06.03-.04.05-.08.08-.12.05-.05.1-.1.15-.15.02-.02.05-.04.08-.02Z"/>
    <path class="cls-1" d="M177.58,189.19c.01-.05.02-.1.03-.15.02-.05,0-.08-.03-.11-.03-.03-.05-.07-.06-.11-.02-.07.04-.13.11-.13.13,0,.27.11.3.24.01.05,0,.09-.03.13-.08.1-.19.14-.33.13Z"/>
  </g>
  <path class="cls-1" d="M199.25,168.35c.14,10.3-8.38,18.61-18.6,18.73-10.88.14-19.11-8.79-19.12-18.7-.01-10.15,8.46-18.8,18.95-18.77,10.6.02,18.96,8.87,18.77,18.74ZM186.79,167.16c.06.03.11.05.16.08,2.85,2.09,5.7,4.19,8.56,6.28.17.13.38.29.57.3.63.04,1.26.01,1.92.01-.18-.48-11.74-14.74-12.21-15.11-1.41,1.25-2.81,2.51-4.22,3.76-2.99,2.65-5.98,5.3-8.97,7.96-2.51,2.23-5.02,4.46-7.52,6.69-.14.12-.35.2-.32.5.24,0,.45,0,.67,0,1.94.02,3.89.03,5.83.08.75.02,1.34-.15,1.96-.61,4.49-3.33,9.02-6.61,13.57-9.93ZM165.84,172.53s.06.07.09.1c5.75-4.24,11.53-8.43,17.29-12.7-1-.91-1.95-1.76-2.9-2.62-4.85,5.1-9.66,10.16-14.48,15.21ZM174.86,157.97c-3.12,3.67-6.2,7.29-9.28,10.91.03.03.06.07.09.1,1.31-.95,2.49-2.06,3.75-3.08,1.28-1.04,2.54-2.1,3.81-3.16,1.25-1.03,2.49-2.07,3.73-3.1-.73-.58-1.4-1.11-2.11-1.68Z"/>
  <path class="cls-1" d="M184.04,188.58c.31.18.63.36.95.55-.09.56-.67.87-.66,1.46.46.14.36-.38.6-.47.44.22.46.22.34.62-.07.24,0,.38.18.51.26.18.51.36.76.54.22.17.34.37.16.7-.57-.16-.86-.74-1.42-.94-.24.21-.47.44-.73.63-.26.2-.35.18-.55-.07-.07-.09-.12-.18-.19-.27-.16-.2-.18-.4.04-.57.2-.16.23-.35.17-.58-.56.03-1,.52-.99,1.08,0,.31,0,.61,0,1.01-.21-.07-.44-.07-.51-.18-.2-.3-.44-.51-.88-.54.19-.67,1.01-.72,1.13-1.37h-.88c.19-.23.29-.41.44-.5.41-.25.56-.6.55-1.05,0-.15.04-.31.08-.58.32.31.56.54.84.81-.2.3-.43.64-.65.97.03.03.06.06.1.09.38-.11.73-.36.9-.67.18-.32.14-.76.21-1.19ZM184.54,191.24c-.2-.02-.39-.08-.57-.06-.25.02-.31.24-.14.43.23.26.48.14.71-.37Z"/>
  <path class="cls-1" d="M189.75,189.75c-.36.06-.71.11-1.08.17-.03-.34.16-.44.33-.52.6-.26.74-.71.59-1.3-.06-.23-.09-.47-.11-.7-.02-.17-.02-.35-.04-.59.66.16.58.89,1.05,1.11q.13-.24-.07-.83c.4.12.51.25.45.63-.07.45-.17.9-.25,1.35-.04.19-.07.39-.11.61.52.07.96-.4,1.51-.07-.26.27-.49.51-.71.74-.13-.16-.21-.35-.34-.4-.25-.09-.39.12-.51.31-.17.28-.38.52-.77.58-.06-.38.33-.68.07-1.09Z"/>
  <path class="cls-1" d="M161.02,178.62c.5,0,1.13.68,1.13,1.22,0,.51-.68,1.18-1.19,1.16-.55-.02-1.14-.63-1.15-1.2-.01-.6.58-1.18,1.21-1.18Z"/>
  <path class="cls-1" d="M198.91,179.76c0-.58.54-1.13,1.13-1.14.53-.01,1.16.63,1.17,1.2,0,.51-.67,1.17-1.2,1.17-.58,0-1.1-.58-1.1-1.23Z"/>
  <text class="cls-2" transform="translate(215.93 199.82)"><tspan x="0" y="0">Hunan University of Science and Technology</tspan></text>
  <text>
    <textPath startOffset="-72.65%" xlink:href="#path"><tspan class="cls-3"><tspan class="cls-5" x="0" y="0">H</tspan><tspan class="cls-4" x="0" y="0">unan University of Science and Technology</tspan></tspan>
    </textPath></text>
  <text/>
</svg>